<svg width="46" height="35" viewBox="0 0 130 100" fill="none" xmlns="http://www.w3.org/2000/svg">
  <path d="M20 80 L20 30 L45 60 L70 30 L70 80" stroke="#3b82f6" stroke-width="8" stroke-linecap="round" stroke-linejoin="round"/>
  <circle cx="20" cy="80" r="6" fill="#ffffff" stroke="#3b82f6" stroke-width="4"/>
  <circle cx="20" cy="30" r="6" fill="#ffffff" stroke="#3b82f6" stroke-width="4"/>
  <circle cx="45" cy="60" r="6" fill="#ffffff" stroke="#3b82f6" stroke-width="4"/>
  <circle cx="70" cy="30" r="6" fill="#ffffff" stroke="#3b82f6" stroke-width="4"/>
  <circle cx="70" cy="80" r="6" fill="#ffffff" stroke="#3b82f6" stroke-width="4"/>
  <polygon points="100,45 116,54 116,71 100,81 84,71 84,54" stroke="#3b82f6" stroke-width="6" stroke-linejoin="round"/>
  <line x1="90" y1="57" x2="90" y2="68" stroke="#3b82f6" stroke-width="3" stroke-linecap="round"/>
  <line x1="100" y1="74" x2="110" y2="68" stroke="#3b82f6" stroke-width="3" stroke-linecap="round"/>
  <line x1="110" y1="57" x2="100" y2="52" stroke="#3b82f6" stroke-width="3" stroke-linecap="round"/>
  <circle cx="100" cy="45" r="4" fill="#ffffff" stroke="#3b82f6" stroke-width="3"/>
  <circle cx="116" cy="54" r="4" fill="#ffffff" stroke="#3b82f6" stroke-width="3"/>
  <circle cx="116" cy="71" r="4" fill="#ffffff" stroke="#3b82f6" stroke-width="3"/>
  <circle cx="100" cy="81" r="4" fill="#ffffff" stroke="#3b82f6" stroke-width="3"/>
  <circle cx="84" cy="71" r="4" fill="#ffffff" stroke="#3b82f6" stroke-width="3"/>
  <circle cx="84" cy="54" r="4" fill="#ffffff" stroke="#3b82f6" stroke-width="3"/>
</svg>